<?xml version="1.0" encoding="UTF-8" standalone="no"?>
<!-- Created with Inkscape (http://www.inkscape.org/) -->

<svg
   xmlns:dc="http://purl.org/dc/elements/1.1/"
   xmlns:cc="http://creativecommons.org/ns#"
   xmlns:rdf="http://www.w3.org/1999/02/22-rdf-syntax-ns#"
   xmlns:svg="http://www.w3.org/2000/svg"
   xmlns="http://www.w3.org/2000/svg"
   xmlns:sodipodi="http://sodipodi.sourceforge.net/DTD/sodipodi-0.dtd"
   xmlns:inkscape="http://www.inkscape.org/namespaces/inkscape"
   width="222.44113mm"
   height="119.70082mm"
   viewBox="0 0 222.44113 119.70082"
   version="1.1"
   id="svg2646"
   inkscape:version="0.92.2 (5c3e80d, 2017-08-06)"
   sodipodi:docname="E_Rainbow.svg">
  <defs
     id="defs2640" />
  <sodipodi:namedview
     id="base"
     pagecolor="#ffffff"
     bordercolor="#666666"
     borderopacity="1.0"
     inkscape:pageopacity="0.0"
     inkscape:pageshadow="2"
     inkscape:zoom="0.7"
     inkscape:cx="743.43591"
     inkscape:cy="336.91711"
     inkscape:document-units="mm"
     inkscape:current-layer="layer1"
     showgrid="false"
     fit-margin-top="0"
     fit-margin-left="0"
     fit-margin-right="0"
     fit-margin-bottom="0"
     inkscape:window-width="1920"
     inkscape:window-height="1017"
     inkscape:window-x="-8"
     inkscape:window-y="-8"
     inkscape:window-maximized="1" />
  <metadata
     id="metadata2643">
    <rdf:RDF>
      <cc:Work
         rdf:about="">
        <dc:format>image/svg+xml</dc:format>
        <dc:type
           rdf:resource="http://purl.org/dc/dcmitype/StillImage" />
        <dc:title></dc:title>
      </cc:Work>
    </rdf:RDF>
  </metadata>
  <g
     inkscape:label="Layer 1"
     inkscape:groupmode="layer"
     id="layer1"
     transform="translate(121.89946,-104.61012)">
    <g
       transform="translate(106.70359,570.26512)"
       id="g2627">
      <path
         d="m -27.438162,-375.51847 5.331989,2.3e-4 m -12.307459,-5.1e-4 4.973479,2.5e-4 m -11.95645,-10e-4 4.979969,8e-4 m -11.968438,-0.004 4.98447,0.003 m -11.94392,-0.007 4.95546,0.004 m -12.03339,-0.001 5.07294,-0.003 m -12.31434,0.006 5.23491,-0.002 m -105.632648,0.003 5.23491,-7.9e-4 m -12.31434,10e-4 5.07294,-5.3e-4 m -12.03339,10e-4 4.95546,-5.3e-4 m -11.94393,9.5e-4 4.98447,-2.6e-4 m -11.96844,-0.002 4.97998,0.002 m -11.95646,-0.004 4.97348,10e-4 m -12.30746,-7.8e-4 h 5.33198 m -2.78455,-1.4e-4 c 3.34243,-48.67515 43.80187,-86.45169 92.59153,-86.45168 48.791508,1e-5 89.251808,37.77938 92.591808,86.45658 m -171.259458,-6.3e-4 c 3.33079,-40.97586 37.55699,-72.53295 78.66782,-72.53295 41.110608,0 75.336728,31.55681 78.667758,72.53244 m -164.300188,-0.003 c 3.33864,-44.82616 40.68214,-79.49185 85.63227,-79.49185 44.951478,10e-6 82.295578,34.66769 85.632528,79.49528 m -157.336008,-7.5e-4 c 3.32834,-37.11959 34.4355,-65.56254 71.70377,-65.56254 37.266858,0 68.373358,28.44085 71.703448,65.55885 m -136.475798,0.003 c 3.32131,-33.2824 31.32517,-58.63103 64.77258,-58.63103 33.444408,0 61.446778,25.3442 64.771798,58.62324 m -122.504348,0.007 c 3.31605,-29.37959 28.16665,-51.5834 57.73238,-51.5834 29.564178,0 54.414008,22.20153 57.731938,51.57932 m -108.273968,0.003 c 3.30813,-25.38964 24.93812,-44.38454 50.54181,-44.38454 25.603646,0 47.233628,18.99482 50.541808,44.38438 m 43.42444,0.003 c -3.17593,-49.56319 -44.3015,-88.13779 -93.966398,-88.1378 -49.663,-1e-5 -90.78769,38.57174 -93.9661,88.13287 m 2.9809,-1.2e-4 c 3.28444,-47.83064 43.04198,-84.95176 90.98521,-84.95175 47.945058,1e-5 87.703438,37.12391 90.985488,84.95657 m -11.34274,-3.3e-4 c -3.13993,-41.66361 -37.86086,-73.86624 -79.642698,-73.86624 -41.78088,0 -76.50132,32.20115 -79.64252,73.86366 m 2.60152,0.002 c 3.26192,-40.12846 36.78039,-71.03294 77.04112,-71.03294 40.260518,0 73.778908,30.90421 77.041058,71.03245 m 9.71403,10e-4 c -3.16317,-45.58274 -41.06286,-80.94352 -86.755298,-80.94352 -45.69054,1e-5 -83.58934,35.35795 -86.75494,80.93863 m 2.73837,0.001 c 3.27565,-43.98033 39.91458,-77.99192 84.01663,-77.99192 44.103358,10e-6 80.742878,34.01355 84.016868,77.99529 m -11.36625,-10e-4 c -3.11823,-37.80838 -34.7136,-66.90514 -72.650468,-66.90514 -37.93714,0 -69.53266,29.09719 -72.65053,66.90589 m 2.58717,-3.6e-4 c 3.2522,-36.27033 33.64776,-64.06253 70.06349,-64.06253 36.414348,0 66.809258,27.79015 70.063168,64.05893 m -4.412,-5.4e-4 c -3.09156,-33.9511 -31.55943,-59.94439 -65.651138,-59.94439 -34.09329,0 -62.56191,25.99561 -65.65152,59.94847 m 2.53597,-4.4e-4 c 3.23636,-32.43092 30.5239,-57.13104 63.11574,-57.13104 32.588928,0 59.875018,24.69581 63.114978,57.12345 m -4.43628,6.8e-4 c -3.05852,-30.11111 -28.4125,-53.02012 -58.678718,-53.02012 -30.26885,-10e-6 -55.62415,22.91286 -58.67944,53.02695 m 2.62536,-5.6e-4 c 3.21964,-28.52525 27.34777,-50.08339 56.05394,-50.08339 28.704658,0 52.832028,21.55592 56.053498,50.07943 m -4.47067,7.3e-4 c -3.01569,-26.20678 -25.20295,-45.98717 -51.582868,-45.98716 -26.38111,0 -48.56899,19.78214 -51.58322,45.99028 m 2.74882,-7.4e-4 c 3.19636,-24.53158 24.09557,-42.88454 48.83422,-42.88454 24.738608,0 45.637808,18.35288 48.834218,42.88439 m 46.30488,0.003 c -3.21557,-50.18186 -44.85445,-89.23797 -95.139248,-89.23798 -50.28287,-10e-6 -91.92087,39.05321 -95.13895,89.23299 m 5.33198,0 c 3.24192,-47.2112 42.48461,-83.85157 89.80698,-83.85156 47.324178,10e-6 86.567698,36.64313 89.807248,83.85632 m -8.97847,-3.3e-4 c -3.18668,-42.28413 -38.42468,-74.96637 -80.828728,-74.96637 -42.40307,0 -77.64058,32.68074 -80.82855,74.96375 m 4.97998,0.002 c 3.21143,-39.50729 36.21112,-69.93339 75.84869,-69.93339 39.637368,0 72.636968,30.42583 75.848638,69.93291 m 11.95645,10e-4 c -3.20145,-46.13447 -41.55984,-81.92326 -87.805298,-81.92326 -46.24353,10e-6 -84.60102,35.78592 -87.80494,81.91831 m 4.97348,0.001 c 3.22945,-43.3599 39.35157,-76.89169 82.83153,-76.89169 43.481238,1e-5 79.603938,33.53372 82.831748,76.89501 m -8.98697,-10e-4 c -3.16948,-38.42993 -35.2842,-68.00502 -73.844648,-68.00502 -38.56072,0 -70.67558,29.57553 -73.84469,68.00578 m 4.98447,-3.6e-4 c 3.19634,-35.64741 33.06996,-62.9623 68.86036,-62.9623 35.789038,0 65.661998,27.31287 68.860038,62.95876 m -2.00399,-6.7e-4 c -3.14831,-34.57429 -32.13863,-61.0447 -66.856018,-61.0447 -34.71898,0 -63.71008,26.47277 -66.85639,61.04885 m 4.95546,-4.4e-4 c 3.17408,-31.8067 29.93649,-56.03139 61.90112,-56.03139 31.961768,0 58.722758,24.22047 61.900368,56.02395 m -2.00499,3.9e-4 c -3.12194,-30.73557 -29.00162,-54.11968 -59.895388,-54.11968 -30.89645,-10e-6 -56.77748,23.38804 -59.89612,54.12665 m 5.07294,-5.6e-4 c 3.14893,-27.89871 26.74723,-48.98335 54.82303,-48.98335 28.074318,0 51.671868,21.08246 54.822598,48.97948 m -2.00649,5.6e-4 c -3.08778,-26.8335 -25.80551,-47.08694 -52.816148,-47.08693 -27.01185,0 -49.73021,20.25523 -52.8165,47.09013 m 5.23491,-7.4e-4 c 3.11436,-23.90205 23.47741,-41.78404 47.58142,-41.78404 24.103958,0 44.466998,17.88191 47.581408,41.7839"
         style="fill:none;stroke:#ff0000;stroke-width:0.1;stroke-linecap:butt;stroke-linejoin:miter;stroke-miterlimit:4;stroke-dasharray:none;stroke-opacity:1"
         id="path21201"
         inkscape:connector-curvature="0" />
      <path
         d="m -15.266059,-361.93823 c 0,0.5799 -0.470101,1.05 -1.05,1.05 -0.579899,0 -1.05,-0.4701 -1.05,-1.05 0,-0.5799 0.470101,-1.05 1.05,-1.05 0.579899,0 1.05,0.4701 1.05,1.05 z m -59.964039,0 c 0,0.5799 -0.470101,1.05 -1.05,1.05 -0.579899,0 -1.05,-0.4701 -1.05,-1.05 0,-0.5799 0.470101,-1.05 1.05,-1.05 0.579899,0 1.05,0.4701 1.05,1.05 z m 3.62102,-17.71249 c -0.05197,-0.008 -0.109707,-0.0151 -0.174152,-0.0222 -0.719934,-0.0802 -1.900616,-0.12697 -2.473748,-0.077 -9.084582,0.79184 -10.994678,8.57824 -10.994678,13.93248 0,4.0859 3.019182,7.58129 7.292062,9.00927 v 4.31395 h 2.022615 c -0.01471,0.0736 -0.02273,0.14981 -0.02273,0.22789 v 5.1139 c 0,0.63602 0.51222,1.14825 1.148249,1.14825 h 3.145028 v -23.77332 m 50.365738,0.35 v 0.3001 l -49.096085,0.008 2.1e-5,23.11521 h 19.381245 c 0.636032,0 1.148252,-0.51223 1.148252,-1.14825 v -5.11391 c 0,-0.0781 -0.008,-0.15426 -0.02273,-0.22789 h 1.97249 v -1.98851 c 1.211379,-0.4118 2.327508,-0.91768 3.318142,-1.50533 2.417363,2.15757 5.800665,3.49384 9.547223,3.49384 4.86782,0 9.1231,-2.26209 11.44116,-5.63945 1.595966,0.76441 3.398676,1.20355 5.296836,1.20355 6.634718,0 12.938363,-6.4404 12.011152,-14.88953 -0.597463,-5.44433 -2.261748,-8.58763 -11.287167,-11.68508 -0.614889,-4.47542 -3.276997,-8.71654 -7.097242,-11.50524 m -132.747423,33.07173 c 0,0.5799 -0.4701,1.05 -1.05,1.05 -0.5799,0 -1.05,-0.4701 -1.05,-1.05 0,-0.5799 0.4701,-1.05 1.05,-1.05 0.5799,0 1.05,0.4701 1.05,1.05 z m -59.96406,0 c 0,0.5799 -0.4701,1.05 -1.05,1.05 -0.5799,0 -1.05,-0.4701 -1.05,-1.05 0,-0.5799 0.4701,-1.05 1.05,-1.05 0.5799,0 1.05,0.4701 1.05,1.05 z m 54.24301,-17.71247 c 0.052,-0.008 0.10971,-0.0151 0.17415,-0.0222 0.71994,-0.0802 1.90062,-0.12697 2.47375,-0.077 9.08458,0.79184 10.99468,8.57824 10.99468,13.93248 0,4.08591 -3.01918,7.5813 -7.29206,9.00928 v 4.31394 h -2.02262 c 0.0147,0.0736 0.0227,0.14981 0.0227,0.2279 v 5.11389 c 0,0.63602 -0.51222,1.14826 -1.14825,1.14826 h -3.14502 v -23.62324 m -50.36571,0.19992 v 0.30009 l 49.09611,0.008 -2e-5,23.11521 h -19.38127 c -0.63603,0 -1.14825,-0.51223 -1.14825,-1.14825 v -5.11391 c 0,-0.0781 0.008,-0.15426 0.0227,-0.22789 h -1.97249 v -1.98851 c -1.21138,-0.4118 -2.32751,-0.91768 -3.31814,-1.50533 -2.41737,2.15757 -5.80067,3.49384 -9.54722,3.49384 -4.86782,0 -9.1231,-2.26209 -11.44116,-5.63945 -1.59597,0.76441 -3.39868,1.20355 -5.29684,1.20355 -6.63472,0 -12.93836,-6.4404 -12.01115,-14.88953 0.59746,-5.44433 2.26175,-8.58763 11.28716,-11.68508 0.61489,-4.47542 3.277,-8.71654 7.09725,-11.50524 m 181.87459,25.60014 c 0,-49.19054 -39.876896,-89.06744 -89.06743,-89.06744 -49.19053,0 -89.06743,39.8769 -89.06743,89.06744 m -1.32499,0 v -0.95912 c 0.0165,-0.34612 -0.1114,-0.41418 -0.64182,-0.40669 h -3.34036 c -0.39024,0 -0.41755,0.42251 -0.41755,0.42013 v 0.94568 l -1.73787,-0.0454 c -0.33847,-0.0454 -1.15583,-1.3161 -1.15662,-2.13348 -0.15196,-1.81847 0.59146,-2.63492 1.65549,-3.39596 2.88763,-50.53249 44.77858,-90.6203 96.03425,-90.6203 51.298505,0 93.216473,40.15483 96.041244,90.74701 2.072048,0.69006 1.728111,3.26908 1.728111,3.26908 1.32e-4,0.85614 -0.782601,2.17078 -1.493063,2.1708 -0.02708,-8e-4 -0.05414,-0.002 -0.08113,-0.005 v 0.0134 h -1.295529 v -0.95912 c -0.01654,-0.38066 -0.0875,-0.41796 -0.607197,-0.40669 h -3.373438 c -0.437168,0.0331 -0.441401,-0.004 -0.419097,0.50591 v 0.8599 h -2.600357 v -0.92604 c 0,-0.36557 -0.006,-0.44495 -0.22376,-0.45062 v 10e-6 c -0.07258,-0.002 -0.168297,0.004 -0.295588,0.0108 h -3.307291 c -0.4821,0 -0.561594,0.0385 -0.573093,0.43977 v 0.92604 h -2.600357 v -0.89297 c -5e-6,-0.5918 -0.09521,-0.48708 -0.696081,-0.47284 h -3.175 c -0.494012,0 -0.57395,-0.0611 -0.528651,0.47284 v 0.89297 h -2.600359 v -0.92604 c 0.03307,-0.42517 -0.153782,-0.44257 -0.740522,-0.43977 h -3.075781 c -0.0523,-0.0104 -0.100518,-0.017 -0.144695,-0.0202 -0.03866,-0.003 -0.07416,-0.003 -0.106971,0 v 0 c -0.229653,0.0204 -0.320432,0.18337 -0.331761,0.52607 v 0.8599 h -2.600876 v -0.8599 c 0.04961,-0.4834 -0.08723,-0.52695 -0.519863,-0.50591 h -3.373438 c -0.46396,0 -0.567431,0.0354 -0.506431,0.43977 v 0.92604 h -2.600357 v -0.92604 c 0,-0.42538 -0.09937,-0.45123 -0.663524,-0.43977 h -3.241146 c -0.436832,0 -0.556861,0.0278 -0.495062,0.4067 v 0.95911 h -2.60032 v -0.95912 c 0.01654,-0.34612 -0.111392,-0.41418 -0.641821,-0.40669 h -3.340364 c -0.390261,0 -0.417547,0.42251 -0.417547,0.42013 v 0.94568 l -2.211787,0.011 c -0.355677,-0.0235 -1.532258,-1.00076 -1.658424,-2.26446 -0.0347,-1.94065 0.434417,-3.22684 2.026118,-3.49146 -2.894798,-23.25898 -22.707668,-41.27645 -46.731772,-41.27645 -23.94362,0 -43.70418,17.89686 -46.6415,41.04275 2.41427,0.96063 2.0799,2.17031 2.16939,3.72521 0.0688,1.82117 -1.73101,2.21882 -2.14017,2.23614 -0.0359,-5.3e-4 -1.70468,0.0173 -1.70468,0.0173 v -0.95911 c -0.0165,-0.38066 -0.088,-0.41797 -0.60772,-0.4067 h -3.37344 c -0.43719,0.0331 -0.44087,-0.004 -0.41858,0.50591 v 0.8599 l -2.60035,1e-5 v -0.92605 c 0,-0.36557 -0.006,-0.44495 -0.22376,-0.45062 v 1e-5 c -0.0726,-0.002 -0.16882,0.004 -0.29611,0.0109 h -3.30729 c -0.48213,0 -0.56104,0.0385 -0.57258,0.43976 v 0.92605 l -2.60087,-1e-5 v -0.89297 c 0,-0.59179 -0.0952,-0.48707 -0.69608,-0.47284 h -3.175 c -0.49397,0 -0.57396,-0.0611 -0.52865,0.47284 v 0.89297 h -2.60036 v -0.92604 c 0.0331,-0.42517 -0.15378,-0.44257 -0.74053,-0.43977 h -3.07578 c -0.0523,-0.0103 -0.10051,-0.017 -0.14469,-0.0202 -0.0387,-0.003 -0.0742,-0.003 -0.10697,0 v 1e-5 c -0.22965,0.0204 -0.3204,0.18337 -0.33176,0.52606 v 0.8599 h -2.60036 v -0.8599 c 0.0496,-0.48342 -0.0877,-0.52694 -0.52038,-0.50591 h -3.37344 c -0.46396,0 -0.56688,0.0355 -0.50591,0.43977 v 0.92604 l -2.60088,10e-6 v -0.92605 c 0,-0.42538 -0.0994,-0.45122 -0.66352,-0.43976 h -3.24115 c -0.43684,0 -0.55684,0.0278 -0.49506,0.40669 v 0.95912 z m 36.2164,0 c 0,-29.93459 24.26676,-54.20135 54.20134,-54.20135 h 4e-5 c 29.934583,0 54.20134,24.26676 54.20134,54.20135 m 7.080668,0 c 0,-33.80634 -27.405441,-61.21177 -61.211768,-61.21177 -33.80633,0 -61.21177,27.40543 -61.21177,61.21177 m -6.94014,0 c -1e-5,-37.63934 30.51257,-68.15192 68.15191,-68.15192 37.639328,0 68.151916,30.51258 68.151913,68.15192 m 6.940146,0 c 0,-41.47213 -33.61994,-75.09206 -75.092059,-75.09206 -41.47213,0 -75.09154,33.61993 -75.09154,75.09206 m -6.94066,0 c 0,-45.30493 36.72727,-82.03169 82.0322,-82.03169 45.304921,-10e-6 82.031685,36.72676 82.031685,82.03169"
         style="opacity:1;vector-effect:none;fill:none;fill-opacity:1;fill-rule:evenodd;stroke:#000000;stroke-width:0.1;stroke-linecap:square;stroke-linejoin:miter;stroke-miterlimit:4;stroke-dasharray:none;stroke-dashoffset:0;stroke-opacity:1"
         id="path2470-1"
         inkscape:connector-curvature="0"
         sodipodi:nodetypes="sssssssssscccscccsssccccccsssccccscssccsssssssssscccscccsssccccccsssccccscsscccsccccscccccsccccccccccccscccscccccsccccccccccccccscccscscccccscccccsccccccccccscccscccscsccccccccccccccscccscsccccssccsccsccsccsc" />
    </g>
  </g>
</svg>
