<?xml version="1.0" encoding="UTF-8" standalone="no"?>
<!-- Created with Inkscape (http://www.inkscape.org/) -->

<svg
   xmlns:dc="http://purl.org/dc/elements/1.1/"
   xmlns:cc="http://creativecommons.org/ns#"
   xmlns:rdf="http://www.w3.org/1999/02/22-rdf-syntax-ns#"
   xmlns:svg="http://www.w3.org/2000/svg"
   xmlns="http://www.w3.org/2000/svg"
   xmlns:sodipodi="http://sodipodi.sourceforge.net/DTD/sodipodi-0.dtd"
   xmlns:inkscape="http://www.inkscape.org/namespaces/inkscape"
   width="195.9283mm"
   height="110.64547mm"
   viewBox="0 0 195.9283 110.64547"
   version="1.1"
   id="svg2646"
   inkscape:version="0.92.2 (5c3e80d, 2017-08-06)"
   sodipodi:docname="E_Rainbow.svg">
  <defs
     id="defs2640" />
  <sodipodi:namedview
     id="base"
     pagecolor="#ffffff"
     bordercolor="#666666"
     borderopacity="1.0"
     inkscape:pageopacity="0.0"
     inkscape:pageshadow="2"
     inkscape:zoom="1.2111415"
     inkscape:cx="462.76572"
     inkscape:cy="86.055489"
     inkscape:document-units="mm"
     inkscape:current-layer="layer1"
     showgrid="false"
     fit-margin-top="0"
     fit-margin-left="0"
     fit-margin-right="0"
     fit-margin-bottom="0"
     inkscape:window-width="1920"
     inkscape:window-height="1147"
     inkscape:window-x="-8"
     inkscape:window-y="-8"
     inkscape:window-maximized="1" />
  <metadata
     id="metadata2643">
    <rdf:RDF>
      <cc:Work
         rdf:about="">
        <dc:format>image/svg+xml</dc:format>
        <dc:type
           rdf:resource="http://purl.org/dc/dcmitype/StillImage" />
        <dc:title></dc:title>
      </cc:Work>
    </rdf:RDF>
  </metadata>
  <g
     inkscape:label="Layer 1"
     inkscape:groupmode="layer"
     id="layer1"
     transform="translate(121.4197,-57.532188)">
    <path
       id="path1502"
       style="opacity:1;vector-effect:none;fill:none;fill-opacity:1;fill-rule:evenodd;stroke:#000000;stroke-width:0.1;stroke-linecap:square;stroke-linejoin:miter;stroke-miterlimit:4;stroke-dasharray:none;stroke-dashoffset:0;stroke-opacity:1"
       d="m -67.844514,163.18551 c -0.579901,0 -1.049999,-0.4701 -1.049999,-1.05 0,-0.57988 0.470098,-1.04999 1.049999,-1.04999 0.5799,0 1.049999,0.47011 1.049999,1.04999 0,0.5799 -0.470099,1.05 -1.049999,1.05 z m -15.934121,3.56352 23.772871,-2e-5 c 0.20012,-0.19492 1.084439,-0.89199 1.886029,-0.97201 1.94065,-0.0347 3.22716,0.43453 3.49178,2.02623 1.501712,-0.1869 2.981341,-0.44441 4.435912,-0.76895 0.0209,-0.005 0.0416,-0.01 0.0625,-0.0145 l -0.003,-0.21342 c 0.008,-0.052 0.01511,-0.10971 0.0222,-0.17415 0.0802,-0.71994 0.126969,-1.90062 0.077,-2.47375 -0.791839,-9.08459 -8.578241,-10.99468 -13.932479,-10.99468 -4.085902,0 -7.581291,3.01918 -9.009271,7.29207 h -4.31395 v 2.02261 c -0.0736,-0.0147 -0.149809,-0.0227 -0.227891,-0.0227 h -5.113898 c -0.636021,0 -1.148252,0.51222 -1.148252,1.14825 z"
       inkscape:connector-curvature="0"
       sodipodi:nodetypes="ssssscccccccccscccsscc" />
    <path
       id="path1502-23"
       style="opacity:1;vector-effect:none;fill:none;fill-opacity:1;fill-rule:evenodd;stroke:#000000;stroke-width:0.1;stroke-linecap:square;stroke-linejoin:miter;stroke-miterlimit:4;stroke-dasharray:none;stroke-dashoffset:0;stroke-opacity:1"
       d="m 1.0239532,163.50439 c -0.57989801,0 -1.04999901,-0.4701 -1.04999901,-1.05 0,-0.57988 0.470101,-1.04999 1.04999901,-1.04999 0.579901,0 1.050002,0.47011 1.050002,1.04999 0,0.5799 -0.470101,1.05 -1.050002,1.05 z m -15.9341192,3.56352 23.7728712,-2e-5 c 0.200118,-0.19492 1.08444,-0.89199 1.8860298,-0.97201 1.94065,-0.0347 3.22716,0.43453 3.49178,2.02623 1.501708,-0.1869 2.981338,-0.44441 4.435908,-0.76895 0.0209,-0.005 0.0416,-0.01 0.0625,-0.0145 l -0.003,-0.21342 c 0.008,-0.052 0.01511,-0.10971 0.0222,-0.17415 0.0802,-0.71994 0.126971,-1.90062 0.077,-2.47375 -0.79185,-9.08459 -8.578249,-10.99468 -13.9324898,-10.99468 -4.08589901,0 -7.581288,3.01918 -9.009268,7.29207 h -4.313944 v 2.02261 c -0.0736,-0.0147 -0.14981,-0.0227 -0.227889,-0.0227 h -5.1139012 c -0.636018,0 -1.148249,0.51222 -1.148249,1.14825 z"
       inkscape:connector-curvature="0"
       sodipodi:nodetypes="ssssscccccccccscccsscc" />
    <g
       id="g3304"
       transform="translate(-473.17499,-317.37999)">
      <path
         id="path1616-2-0-7"
         d="m 447.28398,480.81301 c 0.63603,0 1.14825,-0.51223 1.14825,-1.14825 v -5.1139 c 0,-0.0781 -0.008,-0.15426 -0.0227,-0.22789 h 1.97249 v -1.98851 c 1.21138,-0.4118 2.32751,-0.91769 3.31815,-1.50534 2.41736,2.15757 5.80066,3.49385 9.54721,3.49385 4.86782,0 9.12311,-2.26209 11.44117,-5.63945 1.59597,0.76441 3.39868,1.20354 5.29684,1.20354 6.63472,0 12.93836,-6.4404 12.01115,-14.88953 -0.59746,-5.44433 -2.26175,-8.58763 -11.28717,-11.68508 -0.60327,-4.39086 -3.18002,-8.55251 -6.88485,-11.34194 1.75589,6.4203 2.86469,13.10771 3.2489,19.98896 2.07205,0.69006 1.72806,3.26905 1.72806,3.26905 1.4e-4,0.85615 -0.78247,2.17091 -1.49293,2.17093 -0.0271,-8e-4 -0.0541,-0.002 -0.0811,-0.005 v 0.0134 h -0.22841 v 0.28216 l -49.09624,0.008 v 23.11487 z m 34.69969,-14.88385 c -0.57989,0 -1.05006,-0.47016 -1.05006,-1.05006 0,-0.5799 0.47017,-1.05007 1.05006,-1.05007 0.5799,0 1.05007,0.47017 1.05007,1.05007 0,0.5799 -0.47017,1.05006 -1.05007,1.05006 z"
         style="opacity:1;vector-effect:none;fill:none;fill-opacity:1;fill-rule:evenodd;stroke:#000000;stroke-width:0.1;stroke-linecap:square;stroke-linejoin:miter;stroke-miterlimit:4;stroke-dasharray:none;stroke-dashoffset:0;stroke-opacity:1"
         inkscape:connector-curvature="0" />
      <path
         sodipodi:nodetypes="cssccccscsccccccccccccccsssc"
         id="path1616-2-4-8-3"
         d="m 453.70005,432.33565 c -0.63603,0 -1.14825,0.51223 -1.14825,1.14825 v 5.1139 c 0,0.0781 0.008,0.15426 0.0227,0.22789 h -1.97249 v 1.98851 c -1.21137,0.4118 -2.32751,0.91769 -3.31815,1.50534 -2.41736,-2.15757 -5.80065,-3.49385 -9.5472,-3.49385 -4.86783,0 -9.12312,2.26209 -11.44118,5.63945 -1.59597,-0.76441 -3.39868,-1.20354 -5.29684,-1.20354 -6.63472,0 -12.93837,6.4404 -12.01115,14.88953 0.59746,5.44433 2.26175,8.58763 11.28717,11.68508 0.60327,4.39086 3.18002,8.55251 6.88485,11.34194 -1.75589,-6.4203 -2.86469,-13.10771 -3.2489,-19.98896 -2.30623,-0.78373 -1.72806,-3.26905 -1.72806,-3.26905 -1.4e-4,-0.85615 0.78247,-2.17091 1.49293,-2.17093 0.0271,7.9e-4 0.0541,0.002 0.0811,0.005 v -0.0134 h 0.22841 v -0.28216 l 49.09624,-0.008 v -23.11487 z m -34.69969,14.88385 c 0.57989,0 1.05006,0.47016 1.05006,1.05006 0,0.5799 -0.47017,1.05007 -1.05006,1.05007 -0.5799,0 -1.05007,-0.47017 -1.05007,-1.05007 0,-0.5799 0.47017,-1.05006 1.05007,-1.05006 z"
         style="opacity:1;vector-effect:none;fill:none;fill-opacity:1;fill-rule:evenodd;stroke:#000000;stroke-width:0.1;stroke-linecap:square;stroke-linejoin:miter;stroke-miterlimit:4;stroke-dasharray:none;stroke-dashoffset:0;stroke-opacity:1"
         inkscape:connector-curvature="0" />
    </g>
    <g
       id="g1717-3-4-6-1"
       transform="translate(-217.40574,40.696788)">
      <path
         sodipodi:nodetypes="cccccccccccccccccccccccccccccsccsccsccsccsccsccsccsccsccsccsccsccsccsccsccsccsccsccsccsccsccsccsccsccsccsccsccsccsccsccsccsccsccsccsc"
         d="m 283.9027,106.97193 5.33199,2.3e-4 m -12.30746,-5.1e-4 4.97348,2.5e-4 m -11.95645,-0.001 4.97997,8e-4 m -11.96844,-0.004 4.98447,0.003 m -11.94392,-0.007 4.95546,0.004 m -12.03339,-10e-4 5.07294,-0.003 m -12.31434,0.006 5.23491,-0.002 m -105.63265,0.003 5.23491,-7.9e-4 m -12.31434,0.001 5.07294,-5.3e-4 m -12.03339,10e-4 4.95546,-5.3e-4 m -11.94393,9.5e-4 4.98447,-2.6e-4 m -11.96844,-0.002 4.97998,0.002 m -11.95646,-0.004 4.97348,0.001 m -12.30746,-7.8e-4 h 5.33198 m -2.66868,-1.4e-4 c 3.34243,-48.67515 43.686,-86.45169 92.47566,-86.45168 48.79151,10e-6 89.13594,37.77938 92.47594,86.45658 m -170.81765,-6.3e-4 c 3.33079,-40.97586 37.23105,-72.53295 78.34188,-72.53295 41.11061,0 75.01079,31.55681 78.34182,72.53244 m -163.72778,-0.003 c 3.33864,-44.82616 40.43567,-79.49185 85.3858,-79.49185 44.95148,10e-6 82.04912,34.66769 85.38607,79.49528 m -156.74285,-7.5e-4 c 3.32834,-37.11959 34.0888,-65.56254 71.35707,-65.56254 37.26686,0 68.02667,28.44085 71.35676,65.55885 m -135.74026,0.003 c 3.32131,-33.2824 30.93632,-58.63103 64.38373,-58.63103 33.44441,0 61.05794,25.3442 64.38296,58.62324 m -121.74975,0.007 c 3.31605,-29.37959 27.80089,-51.5834 57.36662,-51.5834 29.56418,0 54.04825,22.20153 57.36618,51.57932 m -107.57503,0.003 c 3.30813,-25.38964 24.60494,-44.38454 50.20863,-44.38454 25.60365,0 46.90045,18.99482 50.20863,44.38438 m 43.75762,0.003 c -3.17593,-49.56319 -44.3015,-88.13779 -93.9664,-88.1378 -49.663,-10e-6 -90.78769,38.57174 -93.9661,88.13287 m 2.9809,-1.2e-4 c 3.28444,-47.83064 43.04198,-84.95176 90.98521,-84.95175 47.94506,10e-6 87.70344,37.12391 90.98549,84.95657 m -11.34274,-3.3e-4 c -3.13993,-41.66361 -37.86086,-73.86624 -79.6427,-73.86624 -41.78088,0 -76.50132,32.20115 -79.64252,73.86366 m 2.60152,0.002 c 3.26192,-40.12846 36.78039,-71.03294 77.04112,-71.03294 40.26052,0 73.77891,30.90421 77.04106,71.03245 m 9.71403,10e-4 c -3.16317,-45.58274 -41.06286,-80.94352 -86.7553,-80.94352 -45.69054,10e-6 -83.58934,35.35795 -86.75494,80.93863 m 2.73837,0.001 c 3.27565,-43.98033 39.91458,-77.99192 84.01663,-77.99192 44.10336,10e-6 80.74288,34.01355 84.01687,77.99529 m -11.36625,-0.001 c -3.11823,-37.80838 -34.7136,-66.90514 -72.65047,-66.90514 -37.93714,0 -69.53266,29.09719 -72.65053,66.90589 m 2.58717,-3.6e-4 c 3.2522,-36.27033 33.64776,-64.06253 70.06349,-64.06253 36.41435,0 66.80926,27.79015 70.06317,64.05893 m -4.412,-5.4e-4 c -3.09156,-33.9511 -31.55943,-59.94439 -65.65114,-59.94439 -34.09329,0 -62.56191,25.99561 -65.65152,59.94847 m 2.53597,-4.4e-4 c 3.23636,-32.43092 30.5239,-57.13104 63.11574,-57.13104 32.58893,0 59.87502,24.69581 63.11498,57.12345 m -4.43628,6.8e-4 C 249.71615,76.85106 224.36217,53.94205 194.09595,53.94205 163.8271,53.94204 138.4718,76.85491 135.41651,106.969 m 2.62536,-5.6e-4 c 3.21964,-28.52525 27.34777,-50.08339 56.05394,-50.08339 28.70466,0 52.83203,21.55592 56.0535,50.07943 m -4.47067,0.004 c -3.01569,-26.20678 -25.20295,-45.9903 -51.58287,-45.99029 -26.38111,0 -48.56899,19.78214 -51.58322,45.99028 m 2.74882,-7.4e-4 c 3.19636,-24.53158 24.09557,-42.88454 48.83422,-42.88454 24.73861,0 45.63781,18.35378 48.83422,42.88529 m 46.30488,0.002 C 286.01912,56.78862 244.38024,17.73251 194.09544,17.7325 c -50.28287,-1e-5 -91.92087,39.05321 -95.13895,89.23299 m 5.33198,0 c 3.24192,-47.2112 42.48461,-83.85157 89.80698,-83.85156 47.32418,10e-6 86.5677,36.64313 89.80725,83.85632 m -8.97847,-3.3e-4 C 271.73755,64.68575 236.49955,32.00351 194.0955,32.00351 c -42.40307,0 -77.64058,32.68074 -80.82855,74.96375 m 4.97998,0.002 c 3.21143,-39.50729 36.21112,-69.93339 75.84869,-69.93339 39.63737,0 72.63697,30.42583 75.84864,69.93291 m 11.95645,0.001 c -3.20145,-46.13447 -41.55984,-81.92326 -87.8053,-81.92326 -46.24353,10e-6 -84.60102,35.78592 -87.80494,81.91831 m 4.97348,10e-4 c 3.22945,-43.3599 39.35157,-76.89169 82.83153,-76.89169 43.48124,10e-6 79.60394,33.53372 82.83175,76.89501 m -8.98697,-0.001 c -3.16948,-38.42993 -35.2842,-68.00502 -73.84465,-68.00502 -38.56072,0 -70.67558,29.57553 -73.84469,68.00578 m 4.98447,-3.6e-4 c 3.19634,-35.64741 33.06996,-62.9623 68.86036,-62.9623 35.78904,0 65.662,27.31287 68.86004,62.95876 m -2.00399,-6.7e-4 c -3.14831,-34.57429 -32.13863,-61.0447 -66.85602,-61.0447 -34.71898,0 -63.71008,26.47277 -66.85639,61.04885 m 4.95546,-4.4e-4 c 3.17408,-31.8067 29.93649,-56.03139 61.90112,-56.03139 31.96177,0 58.72276,24.22047 61.90037,56.02395 m -2.00499,3.9e-4 c -3.12194,-30.73557 -29.00162,-54.11968 -59.89539,-54.11968 -30.89645,-1e-5 -56.77748,23.38804 -59.89612,54.12665 m 5.07294,-5.6e-4 c 3.14893,-27.89871 26.74723,-48.98335 54.82303,-48.98335 28.07432,0 51.67187,21.08246 54.8226,48.97948 m -2.00649,5.6e-4 c -3.08778,-26.8335 -25.80551,-47.08694 -52.81615,-47.08693 -27.01185,0 -49.73021,20.25523 -52.8165,47.09013 m 5.23491,-7.4e-4 c 3.11436,-23.90205 23.47741,-41.78404 47.58142,-41.78404 24.10396,0 44.467,17.88191 47.58141,41.7839"
         style="fill:none;stroke:#ff0000;stroke-width:0.1;stroke-linecap:butt;stroke-linejoin:miter;stroke-miterlimit:4;stroke-dasharray:none;stroke-opacity:1"
         id="path21201-2-5-7-7-4"
         inkscape:connector-curvature="0" />
      <path
         id="path1691-9-1-44-3"
         d="m 283.13794,113.08054 c 0,-49.19054 -39.8769,-89.06744 -89.06743,-89.06744 -49.19053,0 -89.06743,39.8769 -89.06743,89.06744"
         style="opacity:1;vector-effect:none;fill:none;fill-opacity:1;fill-rule:evenodd;stroke:#000000;stroke-width:0.1;stroke-linecap:square;stroke-linejoin:miter;stroke-miterlimit:4;stroke-dasharray:none;stroke-dashoffset:0;stroke-opacity:1"
         inkscape:connector-curvature="0" />
      <path
         id="path1689-3-7-4-2"
         d="m 103.67809,113.08054 v -0.95912 c 0.0165,-0.34612 -0.1114,-0.41418 -0.64182,-0.40669 h -3.34036 c -0.39024,0 -0.41755,0.42251 -0.41755,0.42013 v 0.94568 l -1.73787,-0.0454 c -0.33847,-0.0454 -1.3252,-0.80087 -1.4665,-2.13344 -0.15196,-1.81847 0.10201,-2.46117 1.72806,-3.26905 2.88763,-50.53249 45.01589,-90.74725 96.27156,-90.74725 51.29851,0 93.21647,40.15483 96.04124,90.74701 2.07205,0.69006 1.72812,3.26908 1.72812,3.26908 1.3e-4,0.85614 -0.78261,2.17078 -1.49307,2.1708 -0.0271,-8e-4 -0.0541,-0.002 -0.0811,-0.005 v 0.0134 h -1.29553 v -0.95912 c -0.0165,-0.38066 -0.0875,-0.41796 -0.60719,-0.40669 h -3.37344 c -0.43717,0.0331 -0.4414,-0.004 -0.4191,0.50591 v 0.8599 h -2.60036 v -0.92604 c 0,-0.36557 -0.006,-0.44495 -0.22376,-0.45062 v 1e-5 c -0.0726,-0.002 -0.16829,0.004 -0.29558,0.0108 h -3.30729 c -0.4821,0 -0.5616,0.0385 -0.5731,0.43977 v 0.92604 h -2.60035 v -0.89297 c -10e-6,-0.5918 -0.0952,-0.48708 -0.69609,-0.47284 h -3.175 c -0.49401,0 -0.57395,-0.0611 -0.52865,0.47284 v 0.89297 H 267.973 v -0.92604 c 0.0331,-0.42517 -0.15378,-0.44257 -0.74052,-0.43977 h -3.07578 c -0.0523,-0.0104 -0.10052,-0.017 -0.14469,-0.0202 -0.0387,-0.003 -0.0742,-0.003 -0.10697,0 v 0 c -0.22966,0.0204 -0.32044,0.18337 -0.33177,0.52607 v 0.8599 h -2.60087 v -0.8599 c 0.0496,-0.4834 -0.0872,-0.52695 -0.51986,-0.50591 h -3.37344 c -0.46396,0 -0.56743,0.0354 -0.50643,0.43977 v 0.92604 h -2.60036 v -0.92604 c 0,-0.42538 -0.0994,-0.45123 -0.66352,-0.43977 h -3.24115 c -0.43683,0 -0.55686,0.0278 -0.49506,0.4067 v 0.95911 h -2.60032 v -0.95912 c 0.0165,-0.34612 -0.11139,-0.41418 -0.64182,-0.40669 h -3.34037 c -0.39026,0 -0.41754,0.42251 -0.41754,0.42013 v 0.94568 l -2.21179,0.011 c -0.35568,-0.0235 -1.53226,-1.00076 -1.65843,-2.26446 -0.0347,-1.94065 0.43442,-3.22684 2.02612,-3.49146 -2.8948,-23.25898 -22.70767,-41.27645 -46.73177,-41.27645 -23.94362,0 -44.45355,19.25509 -46.6415,41.04275 2.2173,0.40254 2.00043,2.80071 1.93959,3.85653 -0.0485,0.84141 -1.50121,2.0875 -1.91037,2.10482 -0.0359,-5.3e-4 -1.70468,0.0173 -1.70468,0.0173 v -0.95911 c -0.0165,-0.38066 -0.088,-0.41797 -0.60772,-0.4067 h -3.37344 c -0.43719,0.0331 -0.44087,-0.004 -0.41858,0.50591 v 0.8599 l -2.60035,1e-5 v -0.92605 c 0,-0.36557 -0.006,-0.44495 -0.22376,-0.45062 v 1e-5 c -0.0726,-0.002 -0.16882,0.004 -0.29611,0.0109 h -3.30729 c -0.48213,0 -0.56104,0.0385 -0.57258,0.43976 v 0.92605 l -2.60087,-10e-6 v -0.89297 c 0,-0.59179 -0.0952,-0.48707 -0.69608,-0.47284 h -3.175 c -0.49397,0 -0.57396,-0.0611 -0.52865,0.47284 v 0.89297 h -2.60036 v -0.92604 c 0.0331,-0.42517 -0.15378,-0.44257 -0.74053,-0.43977 h -3.07578 c -0.0523,-0.0103 -0.10051,-0.017 -0.14469,-0.0202 -0.0387,-0.003 -0.0742,-0.003 -0.10697,0 v 10e-6 c -0.22965,0.0204 -0.3204,0.18337 -0.33176,0.52606 v 0.8599 h -2.60036 v -0.8599 c 0.0496,-0.48342 -0.0877,-0.52694 -0.52038,-0.50591 H 113.785 c -0.46396,0 -0.56688,0.0355 -0.50591,0.43977 v 0.92604 l -2.60088,10e-6 v -0.92605 c 0,-0.42538 -0.0994,-0.45122 -0.66352,-0.43976 h -3.24115 c -0.43684,0 -0.55684,0.0278 -0.49506,0.40669 v 0.95912 z"
         style="opacity:1;vector-effect:none;fill:none;fill-opacity:1;fill-rule:evenodd;stroke:#000000;stroke-width:0.1;stroke-linecap:square;stroke-linejoin:miter;stroke-miterlimit:4;stroke-dasharray:none;stroke-dashoffset:0;stroke-opacity:1"
         inkscape:connector-curvature="0"
         sodipodi:nodetypes="cccscccccsccccccccccccscccscccccsccccccccccccccscccscscccccscccccscsccccccccscccscccscsccccccccccccccscccscsccc" />
      <path
         id="path1687-1-7-0-5"
         d="m 139.89449,113.08054 c 0,-29.93459 24.26676,-54.20135 54.20134,-54.20135 h 4e-5 c 29.93458,0 54.20134,24.26676 54.20134,54.20135"
         style="opacity:1;vector-effect:none;fill:none;fill-opacity:1;fill-rule:evenodd;stroke:#000000;stroke-width:0.1;stroke-linecap:square;stroke-linejoin:miter;stroke-miterlimit:4;stroke-dasharray:none;stroke-dashoffset:0;stroke-opacity:1"
         inkscape:connector-curvature="0" />
      <path
         id="path1685-2-7-6-4"
         d="m 255.37788,113.08054 c 0,-33.80634 -27.40544,-61.21177 -61.21177,-61.21177 -33.80633,0 -61.21177,27.40543 -61.21177,61.21177"
         style="opacity:1;vector-effect:none;fill:none;fill-opacity:1;fill-rule:evenodd;stroke:#000000;stroke-width:0.1;stroke-linecap:square;stroke-linejoin:miter;stroke-miterlimit:4;stroke-dasharray:none;stroke-dashoffset:0;stroke-opacity:1"
         inkscape:connector-curvature="0" />
      <path
         id="path1683-7-3-7-9"
         d="m 126.0142,113.08054 c -1e-5,-37.63934 30.51257,-68.15192 68.15191,-68.15192 37.63933,0 68.15192,30.51258 68.15191,68.15192"
         style="opacity:1;vector-effect:none;fill:none;fill-opacity:1;fill-rule:evenodd;stroke:#000000;stroke-width:0.1;stroke-linecap:square;stroke-linejoin:miter;stroke-miterlimit:4;stroke-dasharray:none;stroke-dashoffset:0;stroke-opacity:1"
         inkscape:connector-curvature="0" />
      <path
         id="path1681-0-0-0-5"
         d="m 269.25817,113.08054 c 0,-41.47213 -33.61994,-75.09206 -75.09206,-75.09206 -41.47213,0 -75.09154,33.61993 -75.09154,75.09206"
         style="opacity:1;vector-effect:none;fill:none;fill-opacity:1;fill-rule:evenodd;stroke:#000000;stroke-width:0.1;stroke-linecap:square;stroke-linejoin:miter;stroke-miterlimit:4;stroke-dasharray:none;stroke-dashoffset:0;stroke-opacity:1"
         inkscape:connector-curvature="0" />
      <path
         id="path2470-1-6-0-8-1-8"
         d="m 112.13391,113.08054 c 0,-45.30493 36.72727,-82.03169 82.0322,-82.03169 45.30492,-1e-5 82.03169,36.72676 82.03169,82.03169"
         style="opacity:1;vector-effect:none;fill:none;fill-opacity:1;fill-rule:evenodd;stroke:#000000;stroke-width:0.1;stroke-linecap:square;stroke-linejoin:miter;stroke-miterlimit:4;stroke-dasharray:none;stroke-dashoffset:0;stroke-opacity:1"
         inkscape:connector-curvature="0" />
    </g>
  </g>
</svg>
