<?xml version="1.0" encoding="UTF-8" standalone="no"?>
<!-- Created with Inkscape (http://www.inkscape.org/) -->

<svg
   xmlns:dc="http://purl.org/dc/elements/1.1/"
   xmlns:cc="http://creativecommons.org/ns#"
   xmlns:rdf="http://www.w3.org/1999/02/22-rdf-syntax-ns#"
   xmlns:svg="http://www.w3.org/2000/svg"
   xmlns="http://www.w3.org/2000/svg"
   xmlns:sodipodi="http://sodipodi.sourceforge.net/DTD/sodipodi-0.dtd"
   xmlns:inkscape="http://www.inkscape.org/namespaces/inkscape"
   width="194.01051mm"
   height="101.97325mm"
   viewBox="0 0 194.01051 101.97325"
   version="1.1"
   id="svg1911"
   inkscape:version="0.92.2 (5c3e80d, 2017-08-06)"
   sodipodi:docname="Clouds.svg">
  <defs
     id="defs1905" />
  <sodipodi:namedview
     id="base"
     pagecolor="#ffffff"
     bordercolor="#666666"
     borderopacity="1.0"
     inkscape:pageopacity="0.0"
     inkscape:pageshadow="2"
     inkscape:zoom="0.35"
     inkscape:cx="-476.22309"
     inkscape:cy="135.56249"
     inkscape:document-units="mm"
     inkscape:current-layer="layer1"
     showgrid="false"
     fit-margin-top="0"
     fit-margin-left="0"
     fit-margin-right="0"
     fit-margin-bottom="0"
     inkscape:window-width="1920"
     inkscape:window-height="1017"
     inkscape:window-x="-8"
     inkscape:window-y="-8"
     inkscape:window-maximized="1" />
  <metadata
     id="metadata1908">
    <rdf:RDF>
      <cc:Work
         rdf:about="">
        <dc:format>image/svg+xml</dc:format>
        <dc:type
           rdf:resource="http://purl.org/dc/dcmitype/StillImage" />
        <dc:title></dc:title>
      </cc:Work>
    </rdf:RDF>
  </metadata>
  <g
     inkscape:label="Layer 1"
     inkscape:groupmode="layer"
     id="layer1"
     transform="translate(25.945736,-82.72766)">
    <g
       id="g20644"
       transform="translate(-81.303906,360.94298)"
       style="stroke:#0000ff;stroke-width:0.1;stroke-miterlimit:4;stroke-dasharray:none;stroke-opacity:1">
      <path
         sodipodi:nodetypes="scscssscscscsscsssssssssss"
         inkscape:connector-curvature="0"
         d="m 117.63004,-231.84646 c 7.2394,0 13.43147,4.1103 15.95297,9.93098 1.81016,-0.68018 3.81944,-1.04385 5.92847,-1.04385 7.10943,0 13.02683,4.2888 14.32072,9.97447 0.91101,-0.1927 2.45247,-0.34016 3.43376,-0.28996 8.73986,0.44713 10.99474,8.57812 10.99474,13.93236 0,5.35421 -5.18199,9.69899 -11.57975,9.69899 -2.01181,0 -3.91027,-0.43389 -5.55891,-1.18881 -2.84568,2.42987 -7.46966,4.0159 -12.68845,4.0159 -4.20357,0 -8.01229,-1.02793 -10.82526,-2.6966 -2.41735,2.15757 -5.80054,3.49395 -9.54709,3.49395 -4.86783,0 -9.12315,-2.26226 -11.44121,-5.63962 -1.59597,0.76441 -3.39896,1.20331 -5.29712,1.20331 -6.634715,0 -12.938115,-6.44007 -12.010905,-14.8892 0.59746,-5.44433 2.26177,-8.58775 11.287185,-11.6852 1.06625,-7.76058 8.28741,-14.81672 17.03085,-14.81672 z m 43.20906,36.38367 c 0,0.85604 -0.69396,1.55 -1.55,1.55 -0.85604,0 -1.55,-0.69396 -1.55,-1.55 0,-0.85604 0.69396,-1.55 1.55,-1.55 0.85604,0 1.55,0.69396 1.55,1.55 z m -59.96389,0 c 0,0.85604 -0.69396,1.55 -1.549995,1.55 -0.85604,0 -1.55,-0.69396 -1.55,-1.55 0,-0.85604 0.69396,-1.55 1.55,-1.55 0.856035,0 1.549995,0.69396 1.549995,1.55 z"
         style="opacity:1;vector-effect:none;fill:none;fill-opacity:0.17209305;fill-rule:evenodd;stroke:#0000ff;stroke-width:0.1;stroke-linecap:square;stroke-linejoin:miter;stroke-miterlimit:4;stroke-dasharray:none;stroke-dashoffset:0;stroke-opacity:1"
         id="path1716-9-5-1-5-9-8-6" />
      <path
         sodipodi:nodetypes="scscssscscscsscsssssssssss"
         inkscape:connector-curvature="0"
         d="m 198.68804,-222.1195 c 7.23939,0 13.43147,4.1103 15.95297,9.93098 1.81016,-0.68018 3.81944,-1.04385 5.92846,-1.04385 7.10944,0 13.02683,4.2888 14.32072,9.97447 0.91101,-0.1927 2.45247,-0.34016 3.43377,-0.28996 8.73986,0.44713 10.99473,8.57812 10.99473,13.93236 0,5.35421 -5.18199,9.69899 -11.57975,9.69899 -2.01181,0 -3.91027,-0.43389 -5.55891,-1.18881 -2.84568,2.42987 -7.46965,4.0159 -12.68845,4.0159 -4.20356,0 -8.01228,-1.02793 -10.82525,-2.6966 -2.41736,2.15757 -5.80054,3.49395 -9.5471,3.49395 -4.86782,0 -9.12314,-2.26226 -11.4412,-5.63962 -1.59597,0.76441 -3.39896,1.20331 -5.29712,1.20331 -6.63472,0 -12.93811,-6.44007 -12.01091,-14.8892 0.59746,-5.44433 2.26177,-8.58775 11.28719,-11.6852 1.06625,-7.76058 8.28741,-14.81672 17.03085,-14.81672 z m 43.20905,36.38367 c 0,0.85604 -0.69396,1.55 -1.55,1.55 -0.85604,0 -1.55,-0.69396 -1.55,-1.55 0,-0.85604 0.69396,-1.55 1.55,-1.55 0.85604,0 1.55,0.69396 1.55,1.55 z m -59.96388,0 c 0,0.85604 -0.69396,1.55 -1.55,1.55 -0.85604,0 -1.55,-0.69396 -1.55,-1.55 0,-0.85604 0.69396,-1.55 1.55,-1.55 0.85604,0 1.55,0.69396 1.55,1.55 z"
         style="opacity:1;vector-effect:none;fill:none;fill-opacity:0.17209305;fill-rule:evenodd;stroke:#0000ff;stroke-width:0.1;stroke-linecap:square;stroke-linejoin:miter;stroke-miterlimit:4;stroke-dasharray:none;stroke-dashoffset:0;stroke-opacity:1"
         id="path1716-9-5-1-5-9-8-7" />
      <path
         sodipodi:nodetypes="scscssscscscsscsssssssssss"
         inkscape:connector-curvature="0"
         d="m 106.03882,-278.16532 c -7.23939,0 -13.43147,4.1103 -15.95297,9.93098 -1.81016,-0.68018 -3.81944,-1.04385 -5.92846,-1.04385 -7.10944,0 -13.02683,4.2888 -14.32072,9.97447 -0.91101,-0.1927 -2.45247,-0.34016 -3.43377,-0.28996 -8.73986,0.44713 -10.99473,8.57812 -10.99473,13.93236 0,5.35421 5.18199,9.69899 11.57975,9.69899 2.01181,0 3.91027,-0.43389 5.55891,-1.18881 2.84568,2.42987 7.46965,4.0159 12.68845,4.0159 4.20356,0 8.01228,-1.02793 10.82525,-2.6966 2.41736,2.15757 5.80054,3.49395 9.5471,3.49395 4.86782,0 9.12314,-2.26226 11.4412,-5.63962 1.59597,0.76441 3.39896,1.20331 5.29712,1.20331 6.63472,0 12.93812,-6.44007 12.01091,-14.8892 -0.59746,-5.44433 -2.26177,-8.58775 -11.28719,-11.6852 -1.06625,-7.76058 -8.28741,-14.81672 -17.03085,-14.81672 z m -43.20905,36.38367 c 0,0.85604 0.69396,1.55 1.55,1.55 0.85604,0 1.55,-0.69396 1.55,-1.55 0,-0.85604 -0.69396,-1.55 -1.55,-1.55 -0.85604,0 -1.55,0.69396 -1.55,1.55 z m 59.96388,0 c 0,0.85604 0.69396,1.55 1.55,1.55 0.85604,0 1.55,-0.69396 1.55,-1.55 0,-0.85604 -0.69396,-1.55 -1.55,-1.55 -0.85604,0 -1.55,0.69396 -1.55,1.55 z"
         style="opacity:1;vector-effect:none;fill:none;fill-opacity:0.17209305;fill-rule:evenodd;stroke:#0000ff;stroke-width:0.1;stroke-linecap:square;stroke-linejoin:miter;stroke-miterlimit:4;stroke-dasharray:none;stroke-dashoffset:0;stroke-opacity:1"
         id="path1716-9-5-1-5-9-8-1" />
      <path
         sodipodi:nodetypes="scscssscscscsscsssssssssss"
         inkscape:connector-curvature="0"
         d="m 184.31769,-267.51199 c -7.23939,0 -13.43147,4.1103 -15.95297,9.93098 -1.81016,-0.68018 -3.81944,-1.04385 -5.92846,-1.04385 -7.10944,0 -13.02683,4.2888 -14.32072,9.97448 -0.91101,-0.1927 -2.45248,-0.34016 -3.43377,-0.28996 -8.73986,0.44713 -10.99474,8.57812 -10.99474,13.93236 0,5.35421 5.182,9.69899 11.57976,9.69899 2.01181,0 3.91027,-0.43389 5.55891,-1.18881 2.84568,2.42987 7.46965,4.0159 12.68845,4.0159 4.20356,0 8.01228,-1.02793 10.82525,-2.6966 2.41736,2.15757 5.80054,3.49395 9.5471,3.49395 4.86782,0 9.12314,-2.26226 11.4412,-5.63962 1.59597,0.76441 3.39897,1.20331 5.29713,1.20331 6.63472,0 12.93812,-6.44007 12.01091,-14.8892 -0.59746,-5.44433 -2.26177,-8.58775 -11.28719,-11.68521 -1.06625,-7.76058 -8.28742,-14.81672 -17.03086,-14.81672 z m -43.20906,36.38368 c 0,0.85604 0.69396,1.55 1.55,1.55 0.85605,0 1.55001,-0.69396 1.55001,-1.55 0,-0.85604 -0.69396,-1.55 -1.55001,-1.55 -0.85604,0 -1.55,0.69396 -1.55,1.55 z m 59.9639,0 c 0,0.85604 0.69396,1.55 1.55,1.55 0.85604,0 1.55,-0.69396 1.55,-1.55 0,-0.85604 -0.69396,-1.55 -1.55,-1.55 -0.85604,0 -1.55,0.69396 -1.55,1.55 z"
         style="opacity:1;vector-effect:none;fill:none;fill-opacity:0.17209305;fill-rule:evenodd;stroke:#0000ff;stroke-width:0.1;stroke-linecap:square;stroke-linejoin:miter;stroke-miterlimit:4;stroke-dasharray:none;stroke-dashoffset:0;stroke-opacity:1"
         id="path1716-9-5-1-5-9-8-2" />
    </g>
  </g>
</svg>
