<?xml version="1.0" encoding="UTF-8" standalone="no"?>
<!-- Created with Inkscape (http://www.inkscape.org/) -->

<svg
   xmlns:dc="http://purl.org/dc/elements/1.1/"
   xmlns:cc="http://creativecommons.org/ns#"
   xmlns:rdf="http://www.w3.org/1999/02/22-rdf-syntax-ns#"
   xmlns:svg="http://www.w3.org/2000/svg"
   xmlns="http://www.w3.org/2000/svg"
   xmlns:sodipodi="http://sodipodi.sourceforge.net/DTD/sodipodi-0.dtd"
   xmlns:inkscape="http://www.inkscape.org/namespaces/inkscape"
   width="183.80862mm"
   height="75.492088mm"
   viewBox="0 0 183.80862 75.492087"
   version="1.1"
   id="svg1911"
   inkscape:version="0.92.2 (5c3e80d, 2017-08-06)"
   sodipodi:docname="F_Clouds.svg">
  <defs
     id="defs1905" />
  <sodipodi:namedview
     id="base"
     pagecolor="#ffffff"
     bordercolor="#666666"
     borderopacity="1.0"
     inkscape:pageopacity="0.0"
     inkscape:pageshadow="2"
     inkscape:zoom="1.3886241"
     inkscape:cx="468.18312"
     inkscape:cy="59.844382"
     inkscape:document-units="mm"
     inkscape:current-layer="layer1"
     showgrid="false"
     fit-margin-top="0"
     fit-margin-left="0"
     fit-margin-right="0"
     fit-margin-bottom="0"
     inkscape:window-width="1920"
     inkscape:window-height="1147"
     inkscape:window-x="-8"
     inkscape:window-y="-8"
     inkscape:window-maximized="1"
     showguides="true"
     inkscape:guide-bbox="true"
     inkscape:snap-bbox="true"
     inkscape:snap-bbox-midpoints="true" />
  <metadata
     id="metadata1908">
    <rdf:RDF>
      <cc:Work
         rdf:about="">
        <dc:format>image/svg+xml</dc:format>
        <dc:type
           rdf:resource="http://purl.org/dc/dcmitype/StillImage" />
        <dc:title></dc:title>
      </cc:Work>
    </rdf:RDF>
  </metadata>
  <g
     inkscape:label="Layer 1"
     inkscape:groupmode="layer"
     id="layer1"
     transform="translate(50.463236,-53.512562)">
    <path
       id="path1716-9-5-1-5-9-8-1"
       style="opacity:1;vector-effect:none;fill:none;fill-opacity:0.17209305;fill-rule:evenodd;stroke:#0000ff;stroke-width:0.1;stroke-linecap:square;stroke-linejoin:miter;stroke-miterlimit:4;stroke-dasharray:none;stroke-dashoffset:0;stroke-opacity:1"
       d="m 41.989744,119.16133 c 0,0.5799 0.470102,1.05 1.05,1.05 0.579898,0 1.05,-0.4701 1.05,-1.05 0,-0.5799 -0.470102,-1.05 -1.05,-1.05 -0.579898,0 -1.05,0.4701 -1.05,1.05 z m -59.96388,0 c 0,0.5799 0.470102,1.05 1.05,1.05 0.579898,0 1.05,-0.4701 1.05,-1.05 0,-0.5799 -0.470102,-1.05 -1.05,-1.05 -0.579898,0 -1.05,0.4701 -1.05,1.05 z m 42.70905,-36.574206 c -7.23939,0 -13.43147,4.1103 -15.95297,9.93098 -1.81016,-0.68018 -3.81944,-1.04385 -5.92846,-1.04385 -7.10944,0 -13.02683,4.2888 -14.32072,9.974466 -0.91101,-0.1927 -2.45247,-0.34016 -3.43377,-0.28996 -8.73986,0.44713 -10.99473,8.57812 -10.99473,13.93236 0,5.35421 5.18199,9.69899 11.57975,9.69899 2.01181,0 3.91027,-0.43389 5.55891,-1.18881 2.84568,2.42987 7.46965,4.0159 12.68845,4.0159 4.20356,0 8.01228,-1.02793 10.82525,-2.6966 2.41736,2.15757 5.80054,3.49395 9.5471,3.49395 4.86782,0 9.12314,-2.26226 11.4412,-5.63962 1.59597,0.76441 3.39896,1.20331 5.29712,1.20331 6.63472,0 12.93812,-6.44007 12.01091,-14.8892 -0.59746,-5.44433 -2.26177,-8.58775 -11.28719,-11.685196 -1.06625,-7.76058 -8.28741,-14.81672 -17.03085,-14.81672 z"
       inkscape:connector-curvature="0" />
    <path
       inkscape:connector-curvature="0"
       id="path1716-9-5-1-5-9-8-1-3"
       style="opacity:1;vector-effect:none;fill:none;fill-opacity:0.17209305;fill-rule:evenodd;stroke:#0000ff;stroke-width:0.1;stroke-linecap:square;stroke-linejoin:miter;stroke-miterlimit:4;stroke-dasharray:none;stroke-dashoffset:0;stroke-opacity:1"
       d="m -39.258952,62.815782 c 0,-0.5799 -0.470104,-1.05 -1.050002,-1.05 -0.579898,0 -1.049999,0.4701 -1.049999,1.05 0,0.5799 0.470101,1.05 1.049999,1.05 0.579898,0 1.050002,-0.4701 1.050002,-1.05 z m 59.96388,0 c 0,-0.5799 -0.470102,-1.05 -1.05,-1.05 -0.579898,0 -1.05,0.4701 -1.05,1.05 0,0.5799 0.470102,1.05 1.05,1.05 0.579898,0 1.05,-0.4701 1.05,-1.05 z m -42.709052,36.57421 c 7.239392,0 13.4314726,-4.1103 15.9529696,-9.93098 1.81016,0.68018 3.81944,1.04385 5.92846096,1.04385 7.10944104,0 13.02683144,-4.2888 14.32072144,-9.97447 0.91101,0.1927 2.45247,0.34016 3.43377,0.28996 8.739855,-0.44713 10.994725,-8.57812 10.994725,-13.93236 0,-5.35421 -5.181985,-9.69899 -11.579745,-9.69899 -2.01181,0 -3.91027,0.43389 -5.55891,1.18881 -2.8456804,-2.42987 -7.4696504,-4.0159 -12.6884504,-4.0159 -4.20356,0 -8.012282,1.02793 -10.8252496,2.6966 -2.41736,-2.15757 -5.800539,-3.49395 -9.5471,-3.49395 -4.86782,0 -9.123141,2.26226 -11.4412,5.63962 -1.595969,-0.76441 -3.398962,-1.20331 -5.29712,-1.20331 -6.634721,0 -12.938122,6.44007 -12.010911,14.8892 0.597461,5.44433 2.261769,8.58775 11.287191,11.6852 1.06625,7.76058 8.287409,14.81672 17.030848,14.81672 z" />
    <path
       inkscape:connector-curvature="0"
       id="path1716-9-5-1-5-9-8-1-9"
       style="opacity:1;vector-effect:none;fill:none;fill-opacity:0.17209305;fill-rule:evenodd;stroke:#0000ff;stroke-width:0.1;stroke-linecap:square;stroke-linejoin:miter;stroke-miterlimit:4;stroke-dasharray:none;stroke-dashoffset:0;stroke-opacity:1"
       d="m 122.1411,119.70143 c 0,0.5799 0.47011,1.05 1.05,1.05 0.5799,0 1.05001,-0.4701 1.05001,-1.05 0,-0.5799 -0.47011,-1.05 -1.05001,-1.05 -0.57989,0 -1.05,0.4701 -1.05,1.05 z m -59.96388,0 c 0,0.5799 0.470101,1.05 1.049999,1.05 0.579897,0 1.050001,-0.4701 1.050001,-1.05 0,-0.5799 -0.470104,-1.05 -1.050001,-1.05 -0.579898,0 -1.049999,0.4701 -1.049999,1.05 z m 42.70905,-36.574216 c -7.239394,0 -13.431474,4.1103 -15.952974,9.93098 -1.81016,-0.68018 -3.81944,-1.04385 -5.928458,-1.04385 -7.109439,0 -13.026829,4.2888 -14.320718,9.974466 -0.911011,-0.1927 -2.452471,-0.34016 -3.43377,-0.28996 -8.73986,0.44713 -10.994731,8.57813 -10.994731,13.93237 0,5.35421 5.181991,9.69899 11.579751,9.69899 2.011809,0 3.910269,-0.43389 5.558909,-1.18881 2.845681,2.42987 7.46965,4.0159 12.688447,4.0159 4.20356,0 8.01228,-1.02793 10.82525,-2.6966 2.41736,2.15757 5.800544,3.49395 9.547104,3.49395 4.86782,0 9.12314,-2.26226 11.4412,-5.63962 1.59597,0.76441 3.39896,1.20331 5.29712,1.20331 6.63472,0 12.93812,-6.44007 12.01092,-14.8892 -0.59747,-5.44434 -2.26178,-8.58776 -11.2872,-11.685206 -1.06625,-7.76058 -8.2874,-14.81672 -17.03085,-14.81672 z" />
    <path
       inkscape:connector-curvature="0"
       id="path1716-9-5-1-5-9-8-1-3-1"
       style="opacity:1;vector-effect:none;fill:none;fill-opacity:0.17209305;fill-rule:evenodd;stroke:#0000ff;stroke-width:0.1;stroke-linecap:square;stroke-linejoin:miter;stroke-miterlimit:4;stroke-dasharray:none;stroke-dashoffset:0;stroke-opacity:1"
       d="m 40.892403,63.355874 c 0,-0.5799 -0.470104,-1.05 -1.050002,-1.05 -0.579898,0 -1.049999,0.4701 -1.049999,1.05 0,0.5799 0.470101,1.05 1.049999,1.05 0.579898,0 1.050002,-0.4701 1.050002,-1.05 z m 59.963887,0 c 0,-0.5799 -0.4701,-1.05 -1.050004,-1.05 -0.5799,0 -1.05,0.4701 -1.05,1.05 0,0.5799 0.4701,1.05 1.05,1.05 0.579904,0 1.050004,-0.4701 1.050004,-1.05 z m -42.709058,36.57421 c 7.239391,0 13.431472,-4.1103 15.95297,-9.93098 1.81016,0.68018 3.81944,1.04385 5.92846,1.04385 7.109444,0 13.026834,-4.2888 14.320724,-9.97447 0.91101,0.1927 2.45247,0.34016 3.43377,0.28996 8.739854,-0.44713 10.994724,-8.57812 10.994724,-13.93236 0,-5.35421 -5.18198,-9.69899 -11.579744,-9.69899 -2.01181,0 -3.91027,0.43389 -5.55891,1.18881 -2.84568,-2.42987 -7.46965,-4.0159 -12.688453,-4.0159 -4.203559,0 -8.012281,1.02793 -10.825249,2.6966 -2.417361,-2.15757 -5.80054,-3.49395 -9.547101,-3.49395 -4.86782,0 -9.123141,2.26226 -11.4412,5.63962 -1.595969,-0.76441 -3.398962,-1.20331 -5.29712,-1.20331 -6.634721,0 -12.938122,6.44007 -12.010911,14.8892 0.597461,5.44433 2.261769,8.58775 11.287191,11.6852 1.06625,7.76058 8.287409,14.81672 17.030849,14.81672 z" />
  </g>
</svg>
