<?xml version="1.0" encoding="UTF-8" standalone="no"?>
<!-- Created with Inkscape (http://www.inkscape.org/) -->

<svg
   xmlns:dc="http://purl.org/dc/elements/1.1/"
   xmlns:cc="http://creativecommons.org/ns#"
   xmlns:rdf="http://www.w3.org/1999/02/22-rdf-syntax-ns#"
   xmlns:svg="http://www.w3.org/2000/svg"
   xmlns="http://www.w3.org/2000/svg"
   xmlns:sodipodi="http://sodipodi.sourceforge.net/DTD/sodipodi-0.dtd"
   xmlns:inkscape="http://www.inkscape.org/namespaces/inkscape"
   width="99.471542mm"
   height="99.46463mm"
   viewBox="0 0 99.471542 99.46463"
   version="1.1"
   id="svg3979"
   inkscape:version="0.92.2 (5c3e80d, 2017-08-06)"
   sodipodi:docname="G_Support.svg">
  <defs
     id="defs3973" />
  <sodipodi:namedview
     id="base"
     pagecolor="#ffffff"
     bordercolor="#666666"
     borderopacity="1.0"
     inkscape:pageopacity="0.0"
     inkscape:pageshadow="2"
     inkscape:zoom="0.35"
     inkscape:cx="-732.0223"
     inkscape:cy="59.393222"
     inkscape:document-units="mm"
     inkscape:current-layer="layer1"
     showgrid="false"
     inkscape:window-width="1920"
     inkscape:window-height="1017"
     inkscape:window-x="-8"
     inkscape:window-y="-8"
     inkscape:window-maximized="1"
     fit-margin-top="0"
     fit-margin-left="0"
     fit-margin-right="0"
     fit-margin-bottom="0" />
  <metadata
     id="metadata3976">
    <rdf:RDF>
      <cc:Work
         rdf:about="">
        <dc:format>image/svg+xml</dc:format>
        <dc:type
           rdf:resource="http://purl.org/dc/dcmitype/StillImage" />
        <dc:title></dc:title>
      </cc:Work>
    </rdf:RDF>
  </metadata>
  <g
     inkscape:label="Layer 1"
     inkscape:groupmode="layer"
     id="layer1"
     transform="translate(-41.73447,-65.08316)">
    <g
       transform="translate(235.25747,411.03734)"
       id="g3960">
      <path
         inkscape:connector-curvature="0"
         d="m -178.93799,-271.03412 h 48.46574 c 0.5263,0 0.95,0.4237 0.95,0.95 0,0.5263 -0.4237,0.95 -0.95,0.95 h -48.46574 c -0.5263,0 -0.95,-0.4237 -0.95,-0.95 0,-0.5263 0.4237,-0.95 0.95,-0.95 z m 36.0955,-27.82327 c -7.23939,0 -13.43153,4.1105 -15.95303,9.93118 -1.81016,-0.68018 -3.8193,-1.04386 -5.92832,-1.04386 -6.90401,0 -12.68336,4.04456 -14.19655,9.4852 l -0.91002,0.29818 c -0.052,-0.008 -0.1097,-0.0151 -0.17415,-0.0222 -0.71993,-0.0802 -1.90062,-0.12696 -2.47375,-0.077 -3.10107,0.15865 -5.38221,1.2874 -7.03936,2.91352 -0.0943,0.0925 -0.18986,0.18393 -0.28009,0.27957 -2.67979,2.72451 -3.5418,6.67347 -3.65714,9.94565 -0.0109,0.26971 -0.0181,0.53576 -0.0181,0.79375 0,0.15109 0.005,0.30122 0.0134,0.45062 0.002,0.0446 0.006,0.0889 0.009,0.13332 0.008,0.10817 0.0171,0.2158 0.0289,0.32298 0.005,0.0485 0.0108,0.0969 0.0171,0.14521 0.016,0.12387 0.0348,0.24707 0.0563,0.36949 0.004,0.0218 0.006,0.0439 0.0103,0.0656 0.027,0.14708 0.0587,0.29287 0.0935,0.4377 0.008,0.0332 0.0169,0.0661 0.0253,0.0992 0.028,0.11048 0.0585,0.22012 0.0909,0.32917 0.0127,0.0428 0.0254,0.0856 0.0388,0.12816 0.0334,0.10602 0.0694,0.21119 0.10697,0.31575 0.0137,0.0382 0.0266,0.0767 0.0408,0.11472 0.0492,0.13085 0.10156,0.26073 0.1571,0.38912 0.0194,0.045 0.0408,0.0892 0.061,0.13384 0.0395,0.0874 0.08,0.17432 0.12247,0.26045 0.0267,0.0542 0.0538,0.10807 0.0816,0.16175 0.0422,0.0813 0.086,0.16169 0.13074,0.24185 0.0269,0.0483 0.0533,0.0968 0.0811,0.14469 0.0676,0.11608 0.1374,0.23125 0.21032,0.34468 5.4e-4,8.4e-4 0.001,0.002 0.002,0.003 0.0334,0.0519 0.0689,0.10267 0.10336,0.154 0.047,0.07 0.0947,0.13939 0.14366,0.20826 0.0428,0.0602 0.0864,0.11995 0.13074,0.17931 0.039,0.0522 0.0787,0.10401 0.11885,0.15555 0.0515,0.0662 0.10318,0.13231 0.15658,0.1974 0.0312,0.038 0.0638,0.0751 0.0956,0.11266 0.1175,0.13895 0.23898,0.27535 0.36484,0.40876 0.0249,0.0263 0.0492,0.053 0.0744,0.0791 0.0725,0.0753 0.14709,0.14883 0.22221,0.22221 0.0237,0.0231 0.0474,0.0463 0.0713,0.0692 0.08,0.0767 0.1606,0.15285 0.24339,0.22737 0.007,0.006 0.0146,0.0123 0.0217,0.0186 0.18757,0.16792 0.38165,0.33037 0.58291,0.48679 0.0916,0.0712 0.18521,0.14056 0.27957,0.20929 0.0215,0.0156 0.043,0.031 0.0646,0.0465 0.0962,0.0691 0.19356,0.13717 0.29249,0.20361 0.007,0.005 0.0145,0.01 0.0217,0.0145 0.3246,0.21691 0.66322,0.41953 1.01493,0.60668 0.004,0.002 0.007,0.004 0.0103,0.006 0.11873,0.063 0.2391,0.12398 0.3607,0.18345 0.36698,0.17946 0.74665,0.34241 1.13791,0.48783 0.003,9.7e-4 0.005,0.002 0.008,0.003 0.13034,0.0483 0.262,0.0941 0.39481,0.13849 v 4.31395 h 2.02262 c -0.0147,0.0736 -0.0227,0.14981 -0.0227,0.22789 v 5.1139 c 0,0.63602 0.51222,1.14825 1.14825,1.14825 h 3.14503 1.26969 19.38124 c 0.63603,0 1.14825,-0.51223 1.14825,-1.14825 v -5.1139 c 0,-0.0781 -0.008,-0.15426 -0.0227,-0.22789 h 1.97249 v -1.98851 c 0.60538,-0.20581 1.18694,-0.43443 1.74046,-0.68626 3.6e-4,-1.6e-4 6.9e-4,-3.6e-4 0.001,-5.2e-4 8.6e-4,-3.9e-4 0.002,-6.5e-4 0.003,-0.001 0.24765,-0.11274 0.48872,-0.23058 0.72502,-0.35192 0.0496,-0.0254 0.0992,-0.0507 0.14831,-0.0765 0.23906,-0.12583 0.47427,-0.25478 0.70074,-0.38913 0.15108,0.13485 0.30557,0.26651 0.46405,0.39481 0.25175,0.20382 0.51551,0.39694 0.78497,0.58343 0.0697,0.0482 0.13741,0.0987 0.20825,0.14573 1.2e-4,8e-5 4e-4,-8e-5 5.2e-4,0 0.17228,0.11438 0.34779,0.22518 0.52658,0.33228 0.35783,0.21434 0.7284,0.41372 1.11053,0.59738 0.19106,0.0918 0.38517,0.17977 0.58187,0.26355 0.3934,0.16755 0.79765,0.31884 1.21182,0.45268 1.2425,0.4015 2.57343,0.6466 3.96048,0.70849 0.23117,0.0103 0.46399,0.016 0.69815,0.016 0.91271,0 1.80352,-0.08 2.66443,-0.23151 0.28698,-0.0505 0.57067,-0.10897 0.8506,-0.17518 1.11969,-0.26486 2.18053,-0.65283 3.16156,-1.1467 1.96206,-0.98769 3.60554,-2.3979 4.76457,-4.08657 0.59849,0.28665 1.22561,0.52758 1.87637,0.71675 1.6e-4,5e-5 3.6e-4,-4e-5 5.2e-4,0 0.21676,0.063 0.43614,0.12027 0.65784,0.17157 1.6e-4,3e-5 3.5e-4,-4e-5 5.1e-4,0 0.44357,0.10261 0.89684,0.18151 1.35754,0.23461 0.46087,0.0531 0.92951,0.0806 1.40405,0.0806 0.3961,0 0.7906,-0.0243 1.18288,-0.0692 0.0452,-0.005 0.0903,-0.0113 0.13539,-0.0171 0.5332,-0.0681 1.0607,-0.17811 1.57975,-0.32504 0.45292,-0.12821 0.89948,-0.28233 1.33635,-0.46716 0.10485,-0.0444 0.20786,-0.0941 0.31161,-0.14159 0.34762,-0.15918 0.68855,-0.33571 1.02216,-0.52917 0.29781,-0.17269 0.59121,-0.35467 0.87591,-0.55345 2e-4,-1.4e-4 3.2e-4,-3.8e-4 5.2e-4,-5.2e-4 0.52402,-0.3659 1.02466,-0.77507 1.49552,-1.22369 0.31402,-0.2992 0.61506,-0.61602 0.90123,-0.9493 0.28617,-0.33327 0.55742,-0.68332 0.81236,-1.04851 1.27463,-1.82589 2.13816,-4.03726 2.3797,-6.49883 1e-5,-1.7e-4 -2e-5,-3.5e-4 0,-5.2e-4 0.0724,-0.73837 0.0886,-1.49918 0.0434,-2.27894 -10e-6,-1.7e-4 1e-5,-3.5e-4 0,-5.2e-4 -0.0151,-0.25997 -0.0367,-0.52196 -0.0656,-0.786 -0.0373,-0.34027 -0.0789,-0.67141 -0.12609,-0.99425 -0.0708,-0.48427 -0.15464,-0.94969 -0.25632,-1.39785 -0.13553,-0.59737 -0.30336,-1.16441 -0.51521,-1.70532 -6e-5,-1.5e-4 6e-5,-3.7e-4 0,-5.2e-4 -0.31785,-0.81145 -0.73576,-1.5641 -1.2945,-2.27324 -8e-5,-1.1e-4 8e-5,-4.2e-4 0,-5.2e-4 -1.58346,-2.00953 -4.30029,-3.66785 -9.09505,-5.31337 -0.0365,-0.26565 -0.0816,-0.53001 -0.13229,-0.79375 -0.0145,-0.0754 -0.0324,-0.15013 -0.0481,-0.22531 -0.038,-0.18252 -0.0779,-0.3649 -0.12247,-0.54622 -0.0242,-0.0984 -0.0509,-0.19607 -0.077,-0.29404 -0.0435,-0.16299 -0.0887,-0.32549 -0.13746,-0.48731 -0.0299,-0.0994 -0.0611,-0.19825 -0.093,-0.29714 -0.0517,-0.16023 -0.10605,-0.31965 -0.16278,-0.47852 -0.034,-0.0952 -0.0681,-0.19012 -0.10387,-0.28474 -0.0629,-0.16637 -0.12957,-0.33146 -0.19792,-0.49609 -0.035,-0.0843 -0.0685,-0.16893 -0.10491,-0.2527 -0.0917,-0.21107 -0.18839,-0.42008 -0.28887,-0.62787 -0.0161,-0.0334 -0.0306,-0.0675 -0.047,-0.10077 -0.12122,-0.24659 -0.24863,-0.49035 -0.38189,-0.73174 -0.0294,-0.0532 -0.061,-0.10522 -0.091,-0.15813 -0.1034,-0.18278 -0.20871,-0.3647 -0.31884,-0.54415 -0.0519,-0.0846 -0.10682,-0.16736 -0.1602,-0.25115 -0.0944,-0.1482 -0.18995,-0.29565 -0.28887,-0.44131 -0.056,-0.0824 -0.11315,-0.16392 -0.17053,-0.24547 -0.10235,-0.14545 -0.20689,-0.28936 -0.31368,-0.43201 -0.0623,-0.0831 -0.12489,-0.16589 -0.18862,-0.24805 -0.10775,-0.13891 -0.21829,-0.27587 -0.33021,-0.41186 -0.0619,-0.0752 -0.12288,-0.15102 -0.18603,-0.22531 -0.12838,-0.15101 -0.26033,-0.29893 -0.39378,-0.44597 -0.0533,-0.0587 -0.10506,-0.11864 -0.15916,-0.17673 -0.18823,-0.20208 -0.38066,-0.40096 -0.57826,-0.5948 -0.19996,-0.19614 -0.40525,-0.38745 -0.61443,-0.57464 -0.0548,-0.049 -0.11154,-0.0958 -0.16692,-0.14417 -0.1515,-0.13232 -0.3039,-0.26325 -0.45992,-0.39068 -0.0779,-0.0636 -0.1572,-0.12524 -0.23616,-0.18758 -0.14158,-0.11178 -0.2844,-0.22205 -0.42943,-0.3297 -0.0384,-0.0285 -0.075,-0.0591 -0.11369,-0.0873 l -0.005,0.002 c -2.80384,-2.0461 -6.22885,-3.31298 -9.92911,-3.31298 z m -40.60919,36.38328 c 0,0.5799 -0.4701,1.05 -1.04999,1.05 -0.5799,0 -1.05,-0.4701 -1.05,-1.05 0,-0.5799 0.4701,-1.05 1.05,-1.05 0.57989,0 1.04999,0.4701 1.04999,1.05 z m 59.96404,0 c 0,0.5799 -0.4701,1.05 -1.05,1.05 -0.57989,0 -1.04999,-0.4701 -1.04999,-1.05 0,-0.5799 0.4701,-1.05 1.04999,-1.05 0.5799,0 1.05,0.4701 1.05,1.05 z"
         style="opacity:1;vector-effect:none;fill:none;fill-opacity:1;fill-rule:evenodd;stroke:#0000ff;stroke-width:0.10000001;stroke-linecap:square;stroke-linejoin:miter;stroke-miterlimit:4;stroke-dasharray:none;stroke-dashoffset:0;stroke-opacity:1"
         id="rect3921" />
      <path
         d="m -108.63646,-318.08092 h -48.46573 c -0.5263,0 -0.95,0.4237 -0.95,0.95 0,0.5263 0.4237,0.95 0.95,0.95 h 48.46573 c 0.5263,0 0.95,-0.4237 0.95,-0.95 0,-0.5263 -0.4237,-0.95 -0.95,-0.95 z m -36.0955,-27.82326 c 7.23939,0 13.43154,4.1105 15.95304,9.93118 1.81016,-0.68018 3.8193,-1.04386 5.92831,-1.04386 6.90402,0 12.68336,4.04456 14.19655,9.4852 l 0.91002,0.29818 c 0.052,-0.008 0.1097,-0.0151 0.17415,-0.0222 0.71993,-0.0802 1.90062,-0.12696 2.47375,-0.077 3.10107,0.15865 5.382214,1.2874 7.039368,2.91352 0.09425,0.0925 0.189857,0.18393 0.280086,0.27957 2.679793,2.72451 3.541795,6.67346 3.657141,9.94564 0.01094,0.26971 0.01809,0.53577 0.01809,0.79375 0,0.15109 -0.0053,0.30123 -0.01344,0.45062 -0.0024,0.0446 -0.0061,0.0889 -0.0093,0.13332 -0.0077,0.10817 -0.01706,0.21581 -0.02894,0.32299 -0.0054,0.0485 -0.01083,0.0969 -0.01705,0.1452 -0.01597,0.12387 -0.03483,0.24707 -0.05633,0.36949 -0.0038,0.0218 -0.0063,0.0439 -0.01033,0.0656 -0.02705,0.14709 -0.05868,0.29288 -0.09354,0.4377 -0.008,0.0332 -0.01693,0.0661 -0.02532,0.0992 -0.02804,0.11049 -0.05846,0.22013 -0.09095,0.32918 -0.01273,0.0428 -0.02535,0.0856 -0.03876,0.12815 -0.03344,0.10603 -0.06939,0.2112 -0.10697,0.31576 -0.01372,0.0382 -0.02656,0.0767 -0.04082,0.11472 -0.04916,0.13085 -0.101563,0.26072 -0.157097,0.38912 -0.01945,0.045 -0.04076,0.0892 -0.06098,0.13384 -0.03955,0.0874 -0.08002,0.17432 -0.122473,0.26045 -0.02668,0.0542 -0.05383,0.10807 -0.08165,0.16175 -0.04218,0.0813 -0.086,0.16169 -0.130741,0.24184 -0.02694,0.0483 -0.05327,0.0968 -0.08113,0.14469 -0.06762,0.11609 -0.137399,0.23126 -0.210323,0.34469 -5.42e-4,7.9e-4 -0.001,0.002 -0.0016,0.003 -0.03336,0.0519 -0.0689,0.10267 -0.103353,0.154 -0.04699,0.07 -0.09467,0.13939 -0.14366,0.20825 -0.0428,0.0602 -0.08644,0.11996 -0.130741,0.17932 -0.039,0.0522 -0.07871,0.10401 -0.118856,0.15555 -0.05154,0.0662 -0.103177,0.1323 -0.15658,0.19739 -0.0312,0.038 -0.06377,0.0751 -0.0956,0.11267 -0.117501,0.13895 -0.238982,0.27535 -0.364836,0.40876 -0.02486,0.0263 -0.04923,0.053 -0.07441,0.0791 -0.07252,0.0753 -0.14709,0.14882 -0.222209,0.2222 -0.0237,0.0231 -0.04736,0.0463 -0.07131,0.0692 -0.08,0.0767 -0.160598,0.15285 -0.243396,0.22737 -0.0071,0.006 -0.01461,0.0123 -0.0217,0.0186 -0.187568,0.16793 -0.381643,0.33037 -0.58291,0.48679 -0.09164,0.0712 -0.185208,0.14057 -0.27957,0.20929 -0.02146,0.0156 -0.043,0.031 -0.0646,0.0465 -0.09623,0.0691 -0.193557,0.13717 -0.292489,0.20361 -0.0072,0.005 -0.01448,0.01 -0.0217,0.0145 -0.324596,0.21691 -0.663213,0.41953 -1.014925,0.60669 -0.0035,0.002 -0.0069,0.004 -0.01034,0.006 -0.118729,0.063 -0.239098,0.12398 -0.360702,0.18345 -0.366984,0.17946 -0.746654,0.34241 -1.137914,0.48783 -0.003,10e-4 -0.005,0.002 -0.008,0.003 -0.13033,0.0483 -0.262,0.0941 -0.39481,0.13849 v 4.31395 h -2.02262 c 0.0147,0.0736 0.0227,0.14981 0.0227,0.22789 v 5.1139 c 0,0.63602 -0.51222,1.14825 -1.14825,1.14825 h -3.14502 -1.26969 -19.38125 c -0.63603,0 -1.14825,-0.51223 -1.14825,-1.14825 v -5.11392 c 0,-0.0781 0.008,-0.15426 0.0227,-0.22789 h -1.97249 v -1.98851 c -0.60537,-0.20581 -1.18694,-0.43443 -1.74046,-0.68626 -2.6e-4,-1.6e-4 -7.9e-4,-2.6e-4 -10e-4,-5.3e-4 -7.9e-4,-2.6e-4 -0.002,-5.3e-4 -0.003,-10e-4 -0.24764,-0.11273 -0.48871,-0.23057 -0.72502,-0.35191 -0.0496,-0.0254 -0.0992,-0.0507 -0.14831,-0.0765 -0.23906,-0.12584 -0.47426,-0.25479 -0.70073,-0.38914 -0.15108,0.13485 -0.30557,0.26651 -0.46406,0.39481 -0.25175,0.20382 -0.5155,0.39694 -0.78496,0.58343 -0.0697,0.0482 -0.13742,0.0987 -0.20826,0.14573 -1.1e-4,9e-5 -5.3e-4,-8e-5 -5.3e-4,0 -0.17228,0.11439 -0.34779,0.22518 -0.52658,0.33229 -0.35783,0.21433 -0.7284,0.41371 -1.11053,0.59737 -0.19106,0.0918 -0.38517,0.17978 -0.58187,0.26355 -0.3934,0.16755 -0.79765,0.31884 -1.21182,0.45268 -1.2425,0.4015 -2.57343,0.6466 -3.96048,0.70849 -0.23117,0.0103 -0.46399,0.016 -0.69815,0.016 -0.91271,0 -1.80351,-0.08 -2.66443,-0.23151 -0.28697,-0.0505 -0.57067,-0.10896 -0.8506,-0.17517 -1.11969,-0.26486 -2.18053,-0.65283 -3.16156,-1.14671 -1.96206,-0.98768 -3.60554,-2.3979 -4.76457,-4.08656 -0.59849,0.28665 -1.2256,0.52758 -1.87637,0.71674 -1.6e-4,5e-5 -2.6e-4,-4e-5 -5.3e-4,0 -0.21676,0.063 -0.43614,0.12028 -0.65784,0.17158 -1.6e-4,3e-5 -2.6e-4,-4e-5 -5.3e-4,0 -0.44356,0.1026 -0.89683,0.18151 -1.35754,0.2346 -0.46086,0.0531 -0.9295,0.0806 -1.40404,0.0806 -0.3961,0 -0.79061,-0.0243 -1.18288,-0.0692 -0.0452,-0.005 -0.0903,-0.0113 -0.13539,-0.0171 -0.5332,-0.0681 -1.0607,-0.17811 -1.57975,-0.32504 -0.45292,-0.12821 -0.89948,-0.28233 -1.33635,-0.46715 -0.10485,-0.0444 -0.20786,-0.0941 -0.31161,-0.1416 -0.34762,-0.15918 -0.68855,-0.33571 -1.02216,-0.52917 -0.29781,-0.17269 -0.59121,-0.35466 -0.87592,-0.55345 -1.9e-4,-1.4e-4 -2.6e-4,-2.6e-4 -5.2e-4,-5.3e-4 -0.52402,-0.3659 -1.02466,-0.77507 -1.49552,-1.22369 -0.31402,-0.2992 -0.61507,-0.61602 -0.90124,-0.9493 -0.28616,-0.33327 -0.55741,-0.68332 -0.81235,-1.04851 -1.27464,-1.82589 -2.13816,-4.03726 -2.3797,-6.49883 -2e-5,-1.7e-4 2e-5,-2.6e-4 0,-5.3e-4 -0.0724,-0.73837 -0.0886,-1.49918 -0.0434,-2.27892 10e-6,-1.8e-4 -1e-5,-2.7e-4 0,-5.3e-4 0.0151,-0.25997 0.0367,-0.52196 0.0656,-0.786 0.0373,-0.34027 0.0789,-0.67141 0.12609,-0.99425 0.0708,-0.48427 0.15464,-0.94969 0.25631,-1.39785 0.13553,-0.59737 0.30337,-1.16441 0.51522,-1.70532 6e-5,-1.5e-4 -6e-5,-3.7e-4 0,-5.3e-4 0.31784,-0.81145 0.73575,-1.5641 1.29449,-2.27324 8e-5,-1.1e-4 -8e-5,-4.3e-4 0,-5.3e-4 1.58347,-2.00953 4.3003,-3.66785 9.09505,-5.31337 0.0365,-0.26565 0.0816,-0.53001 0.13229,-0.79375 0.0145,-0.0754 0.0324,-0.15013 0.0481,-0.22531 0.038,-0.18252 0.0779,-0.3649 0.12248,-0.54622 0.0242,-0.0984 0.0509,-0.19607 0.077,-0.29404 0.0435,-0.16299 0.0887,-0.32549 0.13746,-0.48731 0.0299,-0.0994 0.0611,-0.19825 0.093,-0.29714 0.0517,-0.16023 0.10604,-0.31965 0.16278,-0.47852 0.034,-0.0952 0.0681,-0.19012 0.10387,-0.28474 0.0629,-0.16637 0.12957,-0.33146 0.19792,-0.49609 0.035,-0.0843 0.0685,-0.16893 0.1049,-0.2527 0.0917,-0.21107 0.1884,-0.42008 0.28887,-0.62787 0.0161,-0.0334 0.0306,-0.0675 0.047,-0.10077 0.12122,-0.24659 0.24863,-0.49035 0.38189,-0.73174 0.0294,-0.0532 0.061,-0.10522 0.091,-0.15813 0.1034,-0.18278 0.20871,-0.3647 0.31885,-0.54415 0.0519,-0.0846 0.10682,-0.16736 0.16019,-0.25115 0.0944,-0.1482 0.18995,-0.29565 0.28887,-0.44131 0.056,-0.0824 0.11316,-0.16392 0.17054,-0.24547 0.10234,-0.14545 0.20688,-0.28936 0.31367,-0.43201 0.0623,-0.0831 0.12489,-0.16589 0.18862,-0.24805 0.10775,-0.13891 0.2183,-0.27587 0.33022,-0.41186 0.0619,-0.0752 0.12287,-0.15102 0.18603,-0.22531 0.12838,-0.15101 0.26033,-0.29893 0.39377,-0.44597 0.0533,-0.0587 0.10506,-0.11864 0.15917,-0.17673 0.18823,-0.20208 0.38065,-0.40096 0.57826,-0.5948 0.19996,-0.19614 0.40524,-0.38745 0.61443,-0.57464 0.0548,-0.049 0.11154,-0.0958 0.16691,-0.14417 0.1515,-0.13232 0.30391,-0.26325 0.45992,-0.39068 0.0779,-0.0636 0.15721,-0.12524 0.23617,-0.18758 0.14157,-0.11178 0.28439,-0.22205 0.42943,-0.3297 0.0384,-0.0285 0.075,-0.0591 0.11368,-0.0873 l 0.005,0.002 c 2.80399,-2.04597 6.229,-3.31285 9.92926,-3.31285 z m 40.60919,36.38327 c 0,0.5799 0.4701,1.05 1.04999,1.05 0.5799,0 1.05,-0.4701 1.05,-1.05 0,-0.5799 -0.4701,-1.05 -1.05,-1.05 -0.57989,0 -1.04999,0.4701 -1.04999,1.05 z m -59.96403,0 c 0,0.5799 0.4701,1.05 1.05,1.05 0.57989,0 1.04999,-0.4701 1.04999,-1.05 0,-0.5799 -0.4701,-1.05 -1.04999,-1.05 -0.5799,0 -1.05,0.4701 -1.05,1.05 z"
         style="opacity:1;vector-effect:none;fill:none;fill-opacity:1;fill-rule:evenodd;stroke:#0000ff;stroke-width:0.10000001;stroke-linecap:square;stroke-linejoin:miter;stroke-miterlimit:4;stroke-dasharray:none;stroke-dashoffset:0;stroke-opacity:1"
         id="rect3921-5"
         inkscape:connector-curvature="0" />
    </g>
  </g>
</svg>
